<svg xmlns="http://www.w3.org/2000/svg" width="1024" height="1024" viewBox="0 0 1024 1024">
<defs><linearGradient id="bg" x1="0" y1="0" x2="0.4" y2="1">
<stop offset="0" stop-color="#A6D3F0"/><stop offset="1" stop-color="#7DB9E8"/></linearGradient>
<filter id="sh" x="-20%" y="-20%" width="140%" height="140%"><feDropShadow dx="0" dy="10" stdDeviation="18" flood-color="#1c4a6e" flood-opacity="0.22"/></filter></defs>
<rect width="1024" height="1024" rx="220" fill="url(#bg)"/>
<g filter="url(#sh)">
<path d="M512 96C260 96 150 250 150 408c0 132 96 236 250 262l-40 150 175-150c1 0 14 0 17 0 252 0 360-130 360-262C912 250 764 96 512 96z" fill="#ffffff"/>
</g>
<g transform="translate(306.0,210.0)"><rect width="120" height="120" rx="24" fill="#FBEFB0" stroke="#c4d0dd" stroke-width="3"/><circle cx="60" cy="60" r="33" fill="none" stroke="#243240" stroke-width="7"/><circle cx="48" cy="52" r="5" fill="#243240"/><circle cx="72" cy="52" r="5" fill="#243240"/><path d="M44 70a18 12 0 0 0 32 0" fill="none" stroke="#243240" stroke-width="7" stroke-linecap="round"/></g><g transform="translate(452.0,210.0)"><rect width="120" height="120" rx="24" fill="#CDE9C4" stroke="#c4d0dd" stroke-width="3"/><path d="M60 38c-6-10-30-8-30 14 0 20 16 32 30 32s30-12 30-32c0-22-24-24-30-14z" fill="#E8736A" stroke="#243240" stroke-width="6" stroke-linejoin="round"/><path d="M60 38c0-10 6-16 14-16" fill="none" stroke="#243240" stroke-width="6" stroke-linecap="round"/></g><g transform="translate(598.0,210.0)"><rect width="120" height="120" rx="24" fill="#BBDCF4" stroke="#c4d0dd" stroke-width="3"/><rect x="34" y="50" width="32" height="32" rx="6" fill="#7FB2E8" stroke="#243240" stroke-width="6"/><rect x="62" y="38" width="28" height="28" rx="6" fill="#fff" stroke="#243240" stroke-width="6"/></g><g transform="translate(306.0,356.0)"><rect width="120" height="120" rx="24" fill="#CDE9C4" stroke="#c4d0dd" stroke-width="3"/><path d="M32 56h56a28 28 0 0 1-56 0z" fill="#fff" stroke="#243240" stroke-width="6" stroke-linejoin="round"/><circle cx="50" cy="48" r="4" fill="#E8736A"/><circle cx="64" cy="46" r="4" fill="#6BA84F"/><circle cx="74" cy="50" r="4" fill="#F0A93A"/></g><g transform="translate(452.0,356.0)"><rect width="120" height="120" rx="24" fill="#FBD9AC" stroke="#c4d0dd" stroke-width="3"/><path d="M48 40l32 20-32 20z" fill="#F0A93A" stroke="#243240" stroke-width="6" stroke-linejoin="round"/></g><g transform="translate(598.0,356.0)"><rect width="120" height="120" rx="24" fill="#BBDCF4" stroke="#c4d0dd" stroke-width="3"/><circle cx="60" cy="46" r="13" fill="#7FB2E8" stroke="#243240" stroke-width="6"/><path d="M36 86c0-15 11-24 24-24s24 9 24 24z" fill="#7FB2E8" stroke="#243240" stroke-width="6" stroke-linejoin="round"/></g><g transform="translate(306.0,502.0)"><rect width="120" height="120" rx="24" fill="#BBDCF4" stroke="#c4d0dd" stroke-width="3"/><path d="M30 40h60a8 8 0 0 1 8 8v22a8 8 0 0 1-8 8H58l-14 12V78h-14a8 8 0 0 1-8-8V48a8 8 0 0 1 8-8z" fill="#fff" stroke="#243240" stroke-width="6" stroke-linejoin="round"/><circle cx="48" cy="58" r="4" fill="#243240"/><circle cx="72" cy="58" r="4" fill="#243240"/><path d="M48 66a14 8 0 0 0 24 0" fill="none" stroke="#243240" stroke-width="5" stroke-linecap="round"/></g><g transform="translate(452.0,502.0)"><rect width="120" height="120" rx="24" fill="#CDE9C4" stroke="#c4d0dd" stroke-width="3"/><circle cx="60" cy="46" r="13" fill="#6BA84F" stroke="#243240" stroke-width="6"/><path d="M36 86c0-15 11-24 24-24s24 9 24 24z" fill="#6BA84F" stroke="#243240" stroke-width="6" stroke-linejoin="round"/></g><g transform="translate(598.0,502.0)"><rect width="120" height="120" rx="24" fill="#F6C9DC" stroke="#c4d0dd" stroke-width="3"/><path d="M60 84C40 72 32 60 32 48c0-9 7-15 15-15 6 0 11 4 13 8 2-4 7-8 13-8 8 0 15 6 15 15 0 12-8 24-28 36z" fill="#E8736A" stroke="#243240" stroke-width="6" stroke-linejoin="round"/></g>
<text x="392" y="930" font-family="DejaVu Sans, Arial, sans-serif" font-weight="bold" font-size="170" fill="#F4C740" stroke="#E0A92E" stroke-width="4">A</text>
</svg>